<?xml version="1.0" standalone="no"?>
<!DOCTYPE svg PUBLIC "-//W3C//DTD SVG 20010904//EN"
 "http://www.w3.org/TR/2001/REC-SVG-20010904/DTD/svg10.dtd">
<svg version="1.0" xmlns="http://www.w3.org/2000/svg"
 width="200.000000pt" height="188.000000pt" viewBox="0 0 200.000000 188.000000"
 preserveAspectRatio="xMidYMid meet">

<g transform="translate(0.000000,188.000000) scale(0.100000,-0.100000)"
fill="#000000" stroke="none">
<path d="M704 1560 c-27 -16 -62 -41 -78 -56 -29 -27 -86 -111 -86 -126 0 -4
24 -8 53 -8 96 -1 217 -56 289 -133 l27 -29 7 27 c11 45 -4 154 -29 209 -21
45 -84 117 -120 138 -8 4 -34 -5 -63 -22z"/>
<path d="M1530 1342 c38 -141 79 -192 153 -192 21 0 52 7 68 16 35 18 109 82
109 95 0 12 -62 67 -113 101 -44 30 -182 78 -221 78 l-23 0 27 -98z"/>
<path d="M1280 1398 c-68 -25 -168 -95 -209 -145 -17 -21 -31 -40 -31 -43 0
-11 177 -60 215 -60 41 0 105 30 121 57 23 37 26 100 10 158 -19 63 -23 64
-106 33z"/>
<path d="M116 1384 c-22 -8 -54 -25 -72 -39 -29 -23 -32 -29 -27 -63 10 -67
43 -139 85 -186 22 -26 43 -45 46 -42 3 3 15 30 27 59 12 30 36 72 54 95 35
43 130 114 169 126 33 11 19 23 -54 46 -77 23 -171 25 -228 4z"/>
<path d="M506 1308 c-108 -15 -225 -104 -274 -208 -34 -71 -42 -191 -18 -274
9 -30 20 -57 24 -60 5 -3 0 21 -11 52 -15 44 -18 76 -15 142 3 73 9 94 38 148
64 121 167 184 308 190 68 3 94 0 144 -19 68 -25 167 -109 188 -159 l12 -30
399 0 399 0 -2 -177 -3 -178 -409 -3 -409 -2 -58 -54 c-82 -77 -146 -99 -264
-94 -114 6 -168 30 -249 112 -32 33 -55 52 -50 43 22 -39 96 -105 146 -130
145 -73 309 -48 432 67 l50 46 413 0 413 0 0 190 0 190 -398 0 -399 0 -32 49
c-76 119 -224 181 -375 159z"/>
<path d="M1930 1154 c0 -6 -31 -44 -70 -85 -105 -111 -121 -171 -65 -238 27
-32 120 -81 154 -81 49 0 63 210 22 330 -21 61 -41 97 -41 74z"/>
<path d="M488 1033 c7 -3 16 -2 19 1 4 3 -2 6 -13 5 -11 0 -14 -3 -6 -6z"/>
<path d="M640 1031 c0 -6 4 -13 10 -16 6 -3 7 1 4 9 -7 18 -14 21 -14 7z"/>
<path d="M706 1023 c-6 -14 -5 -15 5 -6 7 7 10 15 7 18 -3 3 -9 -2 -12 -12z"/>
<path d="M753 1000 c-1 -25 1 -37 4 -28 2 9 12 19 21 21 16 4 16 5 0 6 -9 0
-19 11 -21 24 -2 12 -4 2 -4 -23z"/>
<path d="M838 1033 c7 -3 16 -2 19 1 4 3 -2 6 -13 5 -11 0 -14 -3 -6 -6z"/>
<path d="M974 1029 c-3 -6 -2 -15 3 -20 5 -5 9 -1 9 11 0 23 -2 24 -12 9z"/>
<path d="M1068 1033 c7 -3 16 -2 19 1 4 3 -2 6 -13 5 -11 0 -14 -3 -6 -6z"/>
<path d="M1433 1000 c-1 -25 1 -37 4 -28 2 9 12 19 21 21 16 4 16 5 0 6 -9 0
-19 11 -21 24 -2 12 -4 2 -4 -23z"/>
<path d="M870 1017 c0 -8 -10 -18 -22 -20 l-23 -4 23 -2 c22 -1 41 23 28 36
-3 4 -6 -1 -6 -10z"/>
<path d="M1040 1021 c0 -6 4 -13 10 -16 6 -3 7 1 4 9 -7 18 -14 21 -14 7z"/>
<path d="M1392 1010 c0 -14 2 -19 5 -12 2 6 2 18 0 25 -3 6 -5 1 -5 -13z"/>
<path d="M452 1000 c0 -14 2 -19 5 -12 2 6 2 18 0 25 -3 6 -5 1 -5 -13z"/>
<path d="M532 1000 c0 -14 2 -19 5 -12 2 6 2 18 0 25 -3 6 -5 1 -5 -13z"/>
<path d="M1350 998 c0 -9 5 -20 10 -23 13 -8 13 5 0 25 -8 13 -10 13 -10 -2z"/>
<path d="M670 969 c0 -5 5 -7 10 -4 6 3 10 8 10 11 0 2 -4 4 -10 4 -5 0 -10
-5 -10 -11z"/>
<path d="M86 871 c-49 -63 -86 -154 -86 -211 0 -15 7 -50 16 -78 l17 -51 54
-7 c30 -3 77 -4 104 -1 52 6 139 40 139 54 0 4 -16 19 -36 33 -75 53 -136 165
-152 277 l-7 48 -49 -64z"/>
<path d="M461 848 c-27 -61 -23 -92 6 -52 16 22 61 20 78 -3 7 -9 17 -14 23
-12 7 3 1 27 -16 66 -36 83 -54 83 -91 1z m63 -10 c-3 -5 -12 -8 -20 -8 -15 0
-18 18 -7 45 5 15 8 14 19 -6 7 -13 10 -27 8 -31z"/>
<path d="M607 903 c-2 -5 -2 -23 -1 -40 1 -18 2 -44 3 -58 1 -23 5 -25 46 -25
25 0 45 5 45 10 0 6 -16 10 -35 10 l-35 0 0 55 c0 48 -11 71 -23 48z"/>
<path d="M730 845 l0 -65 45 0 c25 0 45 5 45 10 0 6 -13 10 -30 10 -30 0 -30
1 -30 55 0 42 -3 55 -15 55 -12 0 -15 -14 -15 -65z"/>
<path d="M860 845 c0 -49 3 -66 13 -62 8 2 12 24 12 62 0 38 -4 60 -12 63 -10
3 -13 -14 -13 -63z"/>
<path d="M938 847 c-27 -63 -22 -86 12 -49 21 22 70 19 70 -4 0 -8 7 -14 15
-14 19 0 19 4 -7 72 -32 80 -54 79 -90 -5z m62 1 c0 -11 -8 -18 -19 -18 -18 0
-19 3 -9 31 8 23 13 27 19 17 5 -7 9 -21 9 -30z"/>
<path d="M1080 845 c0 -51 3 -65 15 -65 11 0 15 12 15 52 l0 52 36 -52 c22
-31 44 -52 55 -52 17 0 19 8 19 66 0 48 -3 64 -12 61 -8 -3 -12 -19 -10 -46 1
-22 -2 -41 -7 -41 -5 0 -22 20 -38 45 -20 32 -35 45 -50 45 -22 0 -23 -4 -23
-65z"/>
<path d="M1282 894 c-30 -21 -30 -77 0 -98 25 -18 74 -21 83 -7 3 6 -12 11
-32 13 -41 3 -50 19 -39 64 5 20 13 24 42 24 21 0 33 4 29 10 -9 15 -58 12
-83 -6z"/>
<path d="M1410 845 l0 -65 40 0 c45 0 55 17 13 22 -17 2 -28 9 -28 18 0 9 11
16 28 18 34 4 36 22 2 22 -16 0 -25 6 -25 15 0 9 9 15 25 15 14 0 25 5 25 10
0 6 -18 10 -40 10 l-40 0 0 -65z"/>
<path d="M1195 676 c-16 -7 -50 -32 -75 -55 l-45 -41 52 -48 c28 -26 75 -59
105 -74 55 -28 156 -58 194 -58 21 0 21 0 -8 88 -36 109 -56 148 -91 178 -32
27 -84 31 -132 10z"/>
<path d="M1615 671 c-31 -13 -56 -46 -65 -86 -8 -34 2 -161 14 -172 12 -12
131 32 190 70 34 21 85 64 114 95 l52 57 -62 12 c-35 6 -79 17 -98 22 -41 13
-116 13 -145 2z"/>
<path d="M756 551 c-59 -30 -80 -36 -155 -39 -47 -2 -103 0 -124 6 -46 13 -48
3 -11 -53 39 -58 83 -103 129 -129 44 -26 147 -51 171 -42 22 8 70 122 79 183
7 52 -1 114 -13 111 -4 0 -38 -17 -76 -37z"/>
</g>
</svg>
